<?xml version="1.0" encoding="UTF-8" standalone="no"?>
<svg
   version="1.1"
   width="1181pt"
   height="1087pt"
   viewBox="0 0 1181 1087"
   id="svg8"
   sodipodi:docname="iso-logo-black.svg"
   inkscape:version="1.3 (0e150ed, 2023-07-21)"
   xmlns:inkscape="http://www.inkscape.org/namespaces/inkscape"
   xmlns:sodipodi="http://sodipodi.sourceforge.net/DTD/sodipodi-0.dtd"
   xmlns="http://www.w3.org/2000/svg"
   xmlns:svg="http://www.w3.org/2000/svg">
  <defs
     id="defs8" />
  <sodipodi:namedview
     id="namedview8"
     pagecolor="#ffffff"
     bordercolor="#000000"
     borderopacity="0.25"
     inkscape:showpageshadow="2"
     inkscape:pageopacity="0.0"
     inkscape:pagecheckerboard="true"
     inkscape:deskcolor="#d1d1d1"
     inkscape:document-units="pt"
     inkscape:zoom="0.49343776"
     inkscape:cx="787.33334"
     inkscape:cy="672.83055"
     inkscape:window-width="2560"
     inkscape:window-height="1387"
     inkscape:window-x="0"
     inkscape:window-y="25"
     inkscape:window-maximized="0"
     inkscape:current-layer="g8"
     inkscape:clip-to-page="false" />
  <g
     transform="matrix(0.1,0,0,-0.1,-200.6332,936.5251)"
     fill="#e30613"
     id="g8"
     style="fill:#000000">
    <rect
       style="fill:#ffffff;stroke-width:0;stroke-dasharray:none"
       id="rect1"
       width="11810"
       height="10870"
       x="2006.332"
       y="-9365.251"
       transform="scale(1,-1)" />
    <g
       id="g15"
       transform="translate(-1291.9563,-1459.1508)">
      <g
         id="g13"
         style="fill:#000000">
        <g
           id="g12"
           style="fill:#000000">
          <g
             id="g11"
             style="fill:#000000">
            <g
               id="g10"
               style="fill:#000000">
              <g
                 id="g9"
                 style="fill:#000000" />
            </g>
          </g>
        </g>
      </g>
      <g
         id="g1"
         transform="translate(3298.2883,-45.598458)">
        <path
           d="M 0,5435 V 0 h 5905 5905 v 5435 5435 H 5905 0 Z m 6125,4181 c 282,-10 618,-65 918,-151 922,-264 1712,-837 2280,-1651 31,-45 57,-87 57,-93 0,-8 -45,-11 -144,-11 h -144 l -46,65 c -127,176 -375,452 -538,597 l -70,62 -171,-43 c -306,-75 -643,-136 -979,-177 -76,-10 -138,-21 -138,-24 0,-4 14,-52 31,-106 39,-129 99,-345 99,-361 0,-10 -31,-13 -125,-13 h -124 l -17,58 c -8,31 -25,89 -35,127 -32,110 -81,259 -89,268 -4,5 -70,4 -146,-2 -75,-6 -288,-16 -472,-23 -353,-12 -850,-1 -1182,27 -85,7 -158,10 -162,6 -8,-8 -80,-233 -114,-360 l -27,-101 h -123 c -113,0 -124,2 -124,18 0,22 57,234 100,371 17,52 27,98 22,102 -4,3 -54,12 -112,18 -273,31 -669,104 -972,178 l -187,46 -53,-45 c -161,-138 -420,-422 -553,-605 l -60,-83 h -147 c -82,0 -148,3 -148,6 0,13 160,235 250,349 384,481 854,859 1410,1134 424,210 838,333 1325,396 123,16 449,33 525,28 19,-1 103,-5 185,-7 z M 5655,7329 c 156,-19 244,-23 663,-26 l 482,-4 v -540 -539 h -430 -429 l -3,117 -3,118 -60,24 c -172,68 -403,105 -660,106 -253,0 -367,-22 -476,-95 -112,-73 -128,-222 -35,-314 97,-98 216,-129 746,-195 458,-58 635,-95 857,-182 107,-42 242,-121 326,-192 124,-103 226,-273 273,-453 35,-134 45,-392 20,-529 -43,-234 -131,-402 -292,-555 -174,-166 -398,-275 -707,-344 -341,-77 -824,-89 -1308,-34 -166,18 -262,22 -661,25 l -468,4 v 535 534 h 430 430 v -110 -110 l 39,-20 c 127,-64 388,-111 663,-117 474,-12 687,72 688,272 0,78 -22,120 -88,166 -96,68 -231,99 -662,154 -518,67 -723,114 -948,220 -359,170 -536,429 -572,837 -20,216 15,418 100,594 191,395 628,622 1305,678 136,11 606,-4 780,-25 z m 3785,6 c 446,-67 801,-235 1076,-509 335,-335 497,-765 496,-1316 0,-264 -29,-462 -98,-670 -235,-706 -844,-1128 -1701,-1179 -449,-26 -906,63 -1233,241 -221,120 -456,331 -583,523 -154,234 -249,502 -287,815 -15,125 -12,441 5,572 82,620 414,1090 948,1343 223,105 464,168 762,199 100,10 505,-2 615,-19 z M 3230,6845 v -445 h -290 -290 v -900 -900 h 290 290 v -445 -445 l -1152,2 -1153,3 -3,443 -2,442 h 290 290 v 900 900 l -287,2 -288,3 -3,443 -2,442 H 2075 3230 Z M 2760,3243 c 127,-180 405,-489 562,-625 l 57,-49 163,40 c 313,77 623,134 943,173 99,12 181,23 183,24 2,1 -11,46 -28,101 -41,129 -100,343 -100,365 0,16 12,18 124,18 h 123 l 27,-97 c 15,-54 46,-158 68,-232 l 42,-133 56,6 c 323,33 1165,42 1560,16 124,-8 254,-15 289,-15 h 65 l 34,105 c 19,58 49,159 67,225 l 33,120 126,3 c 84,2 126,-1 126,-8 0,-17 -87,-329 -114,-407 l -25,-72 32,-5 c 18,-3 88,-13 157,-21 293,-37 657,-106 933,-176 143,-37 160,-39 180,-26 48,32 264,247 368,364 60,69 148,176 195,239 l 87,114 h 143 c 79,0 144,-4 144,-8 0,-13 -132,-203 -209,-302 -690,-889 -1709,-1457 -2836,-1582 -186,-20 -724,-17 -900,5 -915,118 -1686,478 -2355,1100 -230,214 -518,560 -644,775 -6,9 25,12 142,12 h 149 z"
           id="path1"
           style="fill:#000000"
           transform="translate(0,2.5e-4)" />
        <path
           d="m 5769,9367 c -231,-79 -451,-329 -653,-742 -46,-93 -86,-178 -89,-187 -5,-14 3,-18 46,-23 248,-27 898,-41 1252,-26 425,18 465,21 465,40 0,25 -150,326 -214,428 -130,210 -259,356 -391,443 -139,90 -280,113 -416,67 z"
           id="path2"
           style="fill:#000000" />
        <path
           d="m 5210,9328 c -536,-113 -974,-294 -1432,-594 -112,-73 -148,-104 -120,-104 4,0 68,-14 142,-30 242,-55 747,-138 923,-152 l 38,-3 42,100 c 122,285 312,596 466,758 34,36 34,37 11,36 -14,-1 -45,-5 -70,-11 z"
           id="path3"
           style="fill:#000000" />
        <path
           d="m 6555,9298 c 69,-80 183,-237 241,-330 71,-115 178,-325 224,-442 l 35,-87 65,6 c 315,31 1060,162 1060,187 0,5 -64,51 -142,102 -426,281 -898,481 -1367,580 -161,34 -160,34 -116,-16 z"
           id="path4"
           style="fill:#000000" />
        <path
           d="m 8921,6509 c -333,-51 -527,-288 -587,-716 -23,-167 -15,-526 15,-666 95,-438 340,-643 745,-624 211,10 326,56 451,182 174,173 244,412 245,825 0,339 -49,554 -167,732 -82,125 -215,217 -363,253 -83,19 -256,27 -339,14 z"
           id="path5"
           style="fill:#000000" />
        <path
           d="m 5480,2614 c -270,-15 -455,-26 -458,-29 -8,-8 118,-267 184,-381 142,-244 282,-408 426,-502 94,-61 151,-81 244,-89 91,-7 157,8 259,60 115,59 281,226 394,397 75,113 261,468 261,498 0,16 -21,19 -215,32 -164,11 -963,21 -1095,14 z"
           id="path6"
           style="fill:#000000" />
        <path
           d="m 4655,2553 c -16,-2 -112,-15 -213,-29 -240,-33 -428,-65 -639,-110 -134,-29 -170,-40 -162,-50 18,-22 281,-191 413,-264 342,-191 714,-332 1086,-410 77,-17 145,-30 151,-30 6,0 -13,28 -43,63 -162,185 -315,437 -439,722 l -48,110 -38,1 c -21,1 -51,0 -68,-3 z"
           id="path7"
           style="fill:#000000" />
        <path
           d="m 7031,2497 c -37,-94 -161,-340 -226,-447 -70,-116 -155,-234 -229,-319 -31,-36 -54,-66 -52,-69 11,-11 351,71 533,129 327,104 739,308 1037,513 l 88,61 -53,12 c -268,62 -589,120 -844,153 -88,11 -176,22 -195,25 -35,4 -35,4 -59,-58 z"
           id="path8"
           style="fill:#000000" />
      </g>
    </g>
  </g>
</svg>
